<svg xmlns="http://www.w3.org/2000/svg" xmlns:xlink="http://www.w3.org/1999/xlink" contentStyleType="text/css" data-diagram-type="CLASS" height="533px" preserveAspectRatio="none" style="width:1866px;height:533px;background:#FFFFFF;" version="1.1" viewBox="0 0 1866 533" width="1866px" zoomAndPan="magnify"><?plantuml 1.2026.6?><defs/><g><g class="title" data-source-line="6"><text fill="#000000" font-family="Verdana" font-size="22" font-weight="700" lengthAdjust="spacing" textLength="210.4072" x="826.9046" y="37.1182">Ports &amp; Adapters</text><text fill="#000000" font-family="Verdana" font-size="22" font-weight="700" lengthAdjust="spacing" textLength="973.79" x="445.2132" y="63.8555">The controller depends only on two concepts - hardware is just one realization</text></g><!--cluster Ports--><g class="cluster" data-qualified-name="Ports" data-source-line="18" id="ent0002"><path d="M767.27,283.2746 L1097.0923,283.2746 A3.75,3.75 0 0 1 1099.5923,285.7746 L1106.5923,306.2893 L1205.27,306.2893 A2.5,2.5 0 0 1 1207.77,308.7893 L1207.77,426.8346 A2.5,2.5 0 0 1 1205.27,429.3346 L767.27,429.3346 A2.5,2.5 0 0 1 764.77,426.8346 L764.77,285.7746 A2.5,2.5 0 0 1 767.27,283.2746" fill="#FFFDE7" style="stroke:#000000;stroke-width:1;"/><line style="stroke:#000000;stroke-width:1;" x1="764.77" x2="1106.5923" y1="306.2893" y2="306.2893"/><text fill="#000000" font-family="Verdana" font-size="14" font-weight="700" lengthAdjust="spacing" textLength="328.8223" x="768.77" y="299.3498">Ports (Application)  ::  hardware-agnostic</text></g><!--cluster Infra--><g class="cluster" data-qualified-name="Infra" data-source-line="42" id="ent0010"><path d="M769.27,101.9746 L973.311,101.9746 A3.75,3.75 0 0 1 975.811,104.4746 L982.811,124.9893 L1181.27,124.9893 A2.5,2.5 0 0 1 1183.77,127.4893 L1183.77,229.0346 A2.5,2.5 0 0 1 1181.27,231.5346 L769.27,231.5346 A2.5,2.5 0 0 1 766.77,229.0346 L766.77,104.4746 A2.5,2.5 0 0 1 769.27,101.9746" fill="#E3F2FD" style="stroke:#000000;stroke-width:1;"/><line style="stroke:#000000;stroke-width:1;" x1="766.77" x2="982.811" y1="124.9893" y2="124.9893"/><text fill="#000000" font-family="Verdana" font-size="14" font-weight="700" lengthAdjust="spacing" textLength="203.041" x="770.77" y="118.0498">Adapters (Infrastructure)</text></g><!--cluster Test--><g class="cluster" data-qualified-name="Test" data-source-line="51" id="ent0013"><path d="M1218.27,85.4746 L1373.3999,85.4746 A3.75,3.75 0 0 1 1375.8999,87.9746 L1382.8999,108.4893 L1673.27,108.4893 A2.5,2.5 0 0 1 1675.77,110.9893 L1675.77,245.5346 A2.5,2.5 0 0 1 1673.27,248.0346 L1218.27,248.0346 A2.5,2.5 0 0 1 1215.77,245.5346 L1215.77,87.9746 A2.5,2.5 0 0 1 1218.27,85.4746" fill="#ECEFF1" style="stroke:#000000;stroke-width:1;"/><line style="stroke:#000000;stroke-width:1;" x1="1215.77" x2="1382.8999" y1="108.4893" y2="108.4893"/><text fill="#000000" font-family="Verdana" font-size="14" font-weight="700" lengthAdjust="spacing" textLength="154.1299" x="1219.77" y="101.5498">Test doubles (host)</text></g><!--class LedPort--><g class="entity" data-qualified-name="Ports.LedPort" data-source-line="19" id="ent0003"><rect fill="#FFFFFF" height="94.0586" rx="2.5" ry="2.5" style="stroke:#000000;stroke-width:1;" width="176.0801" x="780.73" y="319.2746"/><ellipse cx="793.73" cy="349.7966" fill="#FFFFFF" rx="9" ry="9" style="stroke:#000000;stroke-width:1;"/><path d="M790.1577,346.0617 L790.1577,343.9035 L797.5371,343.9035 L797.5371,346.0617 L795.0718,346.0617 L795.0718,354.1384 L797.5371,354.1384 L797.5371,356.2966 L790.1577,356.2966 L790.1577,354.1384 L792.6231,354.1384 L792.6231,346.0617 Z " fill="#000000"/><text fill="#000000" font-family="Verdana" font-size="14" font-style="italic" lengthAdjust="spacing" textLength="72.5703" x="843.4849" y="338.3498">&#171;concept&#187;</text><text fill="#000000" font-family="Verdana" font-size="14" font-style="italic" lengthAdjust="spacing" textLength="53.2861" x="853.127" y="355.3645">LedPort</text><text fill="#000000" font-family="Verdana" font-size="14" font-style="italic" lengthAdjust="spacing" textLength="148.0801" x="805.73" y="372.3791">(single-color display)</text><line style="stroke:#000000;stroke-width:1;" x1="781.73" x2="955.8101" y1="380.3186" y2="380.3186"/><line style="stroke:#000000;stroke-width:1;" x1="781.73" x2="955.8101" y1="388.3186" y2="388.3186"/><g data-visibility-modifier="PUBLIC_METHOD"><ellipse cx="791.73" cy="402.3259" fill="#FFFFFF" rx="3" ry="3" style="stroke:#000000;stroke-width:1;"/></g><text fill="#000000" font-family="Verdana" font-size="14" lengthAdjust="spacing" textLength="115.999" x="798.73" y="406.3938">set(Color) : void</text></g><!--class ClockPort--><g class="entity" data-qualified-name="Ports.ClockPort" data-source-line="22" id="ent0004"><rect fill="#FFFFFF" height="94.0586" rx="2.5" ry="2.5" style="stroke:#000000;stroke-width:1;" width="180.1064" x="1011.72" y="319.2746"/><ellipse cx="1024.72" cy="349.7966" fill="#FFFFFF" rx="9" ry="9" style="stroke:#000000;stroke-width:1;"/><path d="M1021.1477,346.0617 L1021.1477,343.9035 L1028.5271,343.9035 L1028.5271,346.0617 L1026.0618,346.0617 L1026.0618,354.1384 L1028.5271,354.1384 L1028.5271,356.2966 L1021.1477,356.2966 L1021.1477,354.1384 L1023.6131,354.1384 L1023.6131,346.0617 Z " fill="#000000"/><text fill="#000000" font-family="Verdana" font-size="14" font-style="italic" lengthAdjust="spacing" textLength="72.5703" x="1076.4881" y="338.3498">&#171;concept&#187;</text><text fill="#000000" font-family="Verdana" font-size="14" font-style="italic" lengthAdjust="spacing" textLength="66.0557" x="1079.7454" y="355.3645">ClockPort</text><text fill="#000000" font-family="Verdana" font-size="14" font-style="italic" lengthAdjust="spacing" textLength="152.1064" x="1036.72" y="372.3791">(monotonic ms clock)</text><line style="stroke:#000000;stroke-width:1;" x1="1012.72" x2="1190.8264" y1="380.3186" y2="380.3186"/><line style="stroke:#000000;stroke-width:1;" x1="1012.72" x2="1190.8264" y1="388.3186" y2="388.3186"/><g data-visibility-modifier="PUBLIC_METHOD"><ellipse cx="1022.72" cy="402.3259" fill="#FFFFFF" rx="3" ry="3" style="stroke:#000000;stroke-width:1;"/></g><text fill="#000000" font-family="Verdana" font-size="14" lengthAdjust="spacing" textLength="124.4893" x="1029.72" y="406.3938">millis() : uint32_t</text></g><!--class LedAdapter--><g class="entity" data-qualified-name="Infra.LedAdapter" data-source-line="43" id="ent0011"><rect fill="#FFFFFF" height="77.5513" rx="2.5" ry="2.5" style="stroke:#000000;stroke-width:1;" width="197.7773" x="782.88" y="137.9746"/><ellipse cx="795.88" cy="159.9893" fill="#FFFFFF" rx="9" ry="9" style="stroke:#000000;stroke-width:1;"/><path d="M798.3531,166.1323 Q797.7721,166.4312 797.1329,166.5806 Q796.4938,166.73 795.7882,166.73 Q793.2814,166.73 791.9615,165.0781 Q790.6417,163.4263 790.6417,160.3052 Q790.6417,157.1758 791.9615,155.5239 Q793.2814,153.8721 795.7882,153.8721 Q796.4938,153.8721 797.1412,154.0215 Q797.7887,154.1709 798.3531,154.4697 L798.3531,157.1924 Q797.7223,156.6113 797.1288,156.3416 Q796.5353,156.0718 795.9044,156.0718 Q794.5597,156.0718 793.8749,157.1384 Q793.1901,158.2051 793.1901,160.3052 Q793.1901,162.397 793.8749,163.4636 Q794.5597,164.5303 795.9044,164.5303 Q796.5353,164.5303 797.1288,164.2605 Q797.7223,163.9907 798.3531,163.4097 Z " fill="#000000"/><text fill="#000000" font-family="Verdana" font-size="14" lengthAdjust="spacing" textLength="157.0352" x="814.2511" y="157.0498">TeensyRgbLedAdapter</text><text fill="#000000" font-family="Verdana" font-size="14" lengthAdjust="spacing" textLength="169.7773" x="807.88" y="174.0645">(R-&gt;18, G-&gt;14, B-&gt;15)</text><line style="stroke:#000000;stroke-width:1;" x1="783.88" x2="979.6573" y1="182.0039" y2="182.0039"/><line style="stroke:#000000;stroke-width:1;" x1="783.88" x2="825.9669" y1="198.5112" y2="198.5112"/><text fill="#000000" font-family="Verdana" font-size="14" lengthAdjust="spacing" textLength="111.6035" x="825.9669" y="203.5791">realizes LedPort</text><line style="stroke:#000000;stroke-width:1;" x1="937.5704" x2="979.6573" y1="198.5112" y2="198.5112"/></g><!--class ClockAdapter--><g class="entity" data-qualified-name="Infra.ClockAdapter" data-source-line="46" id="ent0012"><rect fill="#FFFFFF" height="77.5513" rx="2.5" ry="2.5" style="stroke:#000000;stroke-width:1;" width="132.4414" x="1035.55" y="137.9746"/><ellipse cx="1056.2013" cy="159.9893" fill="#FFFFFF" rx="9" ry="9" style="stroke:#000000;stroke-width:1;"/><path d="M1058.6745,166.1323 Q1058.0934,166.4312 1057.4542,166.5806 Q1056.8151,166.73 1056.1095,166.73 Q1053.6027,166.73 1052.2829,165.0781 Q1050.963,163.4263 1050.963,160.3052 Q1050.963,157.1758 1052.2829,155.5239 Q1053.6027,153.8721 1056.1095,153.8721 Q1056.8151,153.8721 1057.4625,154.0215 Q1058.11,154.1709 1058.6745,154.4697 L1058.6745,157.1924 Q1058.0436,156.6113 1057.4501,156.3416 Q1056.8566,156.0718 1056.2257,156.0718 Q1054.881,156.0718 1054.1962,157.1384 Q1053.5114,158.2051 1053.5114,160.3052 Q1053.5114,162.397 1054.1962,163.4636 Q1054.881,164.5303 1056.2257,164.5303 Q1056.8566,164.5303 1057.4501,164.2605 Q1058.0436,163.9907 1058.6745,163.4097 Z " fill="#000000"/><text fill="#000000" font-family="Verdana" font-size="14" lengthAdjust="spacing" textLength="87.4385" x="1069.9016" y="157.0498">TeensyClock</text><text fill="#000000" font-family="Verdana" font-size="14" lengthAdjust="spacing" textLength="61.708" x="1082.7668" y="174.0645">(::millis)</text><line style="stroke:#000000;stroke-width:1;" x1="1036.55" x2="1166.9914" y1="182.0039" y2="182.0039"/><line style="stroke:#000000;stroke-width:1;" x1="1036.55" x2="1039.55" y1="198.5112" y2="198.5112"/><text fill="#000000" font-family="Verdana" font-size="14" lengthAdjust="spacing" textLength="124.4414" x="1039.55" y="203.5791">realizes ClockPort</text><line style="stroke:#000000;stroke-width:1;" x1="1163.9914" x2="1166.9914" y1="198.5112" y2="198.5112"/></g><!--class FakeLed--><g class="entity" data-qualified-name="Test.FakeLed" data-source-line="52" id="ent0014"><rect fill="#FFFFFF" height="94.5659" rx="2.5" ry="2.5" style="stroke:#000000;stroke-width:1;" width="177.9189" x="1239.81" y="129.4746"/><ellipse cx="1252.81" cy="159.9966" fill="#FFFFFF" rx="9" ry="9" style="stroke:#000000;stroke-width:1;"/><path d="M1255.2831,166.1396 Q1254.7021,166.4385 1254.0629,166.5879 Q1253.4238,166.7373 1252.7182,166.7373 Q1250.2114,166.7373 1248.8915,165.0854 Q1247.5717,163.4336 1247.5717,160.3125 Q1247.5717,157.1831 1248.8915,155.5313 Q1250.2114,153.8794 1252.7182,153.8794 Q1253.4238,153.8794 1254.0712,154.0288 Q1254.7187,154.1782 1255.2831,154.4771 L1255.2831,157.1997 Q1254.6523,156.6187 1254.0588,156.3489 Q1253.4653,156.0791 1252.8344,156.0791 Q1251.4897,156.0791 1250.8049,157.1458 Q1250.1201,158.2124 1250.1201,160.3125 Q1250.1201,162.4043 1250.8049,163.4709 Q1251.4897,164.5376 1252.8344,164.5376 Q1253.4653,164.5376 1254.0588,164.2678 Q1254.6523,163.998 1255.2831,163.417 Z " fill="#000000"/><text fill="#000000" font-family="Verdana" font-size="14" lengthAdjust="spacing" textLength="44.7139" x="1317.4125" y="148.5498">&#171;test&#187;</text><text fill="#000000" font-family="Verdana" font-size="14" lengthAdjust="spacing" textLength="57.9346" x="1310.8022" y="165.5645">FakeLed</text><text fill="#000000" font-family="Verdana" font-size="14" lengthAdjust="spacing" textLength="149.9189" x="1264.81" y="182.5791">(records set() colors)</text><line style="stroke:#000000;stroke-width:1;" x1="1240.81" x2="1416.7289" y1="190.5186" y2="190.5186"/><line style="stroke:#000000;stroke-width:1;" x1="1240.81" x2="1272.9677" y1="207.0259" y2="207.0259"/><text fill="#000000" font-family="Verdana" font-size="14" lengthAdjust="spacing" textLength="111.6035" x="1272.9677" y="212.0938">realizes LedPort</text><line style="stroke:#000000;stroke-width:1;" x1="1384.5712" x2="1416.7289" y1="207.0259" y2="207.0259"/></g><!--class FakeClock--><g class="entity" data-qualified-name="Test.FakeClock" data-source-line="55" id="ent0015"><rect fill="#FFFFFF" height="94.5659" rx="2.5" ry="2.5" style="stroke:#000000;stroke-width:1;" width="139.5898" x="1472.98" y="129.4746"/><ellipse cx="1485.98" cy="159.9966" fill="#FFFFFF" rx="9" ry="9" style="stroke:#000000;stroke-width:1;"/><path d="M1488.4531,166.1396 Q1487.8721,166.4385 1487.2329,166.5879 Q1486.5938,166.7373 1485.8882,166.7373 Q1483.3814,166.7373 1482.0615,165.0854 Q1480.7417,163.4336 1480.7417,160.3125 Q1480.7417,157.1831 1482.0615,155.5313 Q1483.3814,153.8794 1485.8882,153.8794 Q1486.5938,153.8794 1487.2412,154.0288 Q1487.8887,154.1782 1488.4531,154.4771 L1488.4531,157.1997 Q1487.8223,156.6187 1487.2288,156.3489 Q1486.6353,156.0791 1486.0044,156.0791 Q1484.6597,156.0791 1483.9749,157.1458 Q1483.2901,158.2124 1483.2901,160.3125 Q1483.2901,162.4043 1483.9749,163.4709 Q1484.6597,164.5376 1486.0044,164.5376 Q1486.6353,164.5376 1487.2288,164.2678 Q1487.8223,163.998 1488.4531,163.417 Z " fill="#000000"/><text fill="#000000" font-family="Verdana" font-size="14" lengthAdjust="spacing" textLength="44.7139" x="1531.418" y="148.5498">&#171;test&#187;</text><text fill="#000000" font-family="Verdana" font-size="14" lengthAdjust="spacing" textLength="70.7725" x="1518.3887" y="165.5645">FakeClock</text><text fill="#000000" font-family="Verdana" font-size="14" lengthAdjust="spacing" textLength="111.5898" x="1497.98" y="182.5791">(host-set millis)</text><line style="stroke:#000000;stroke-width:1;" x1="1473.98" x2="1611.5698" y1="190.5186" y2="190.5186"/><line style="stroke:#000000;stroke-width:1;" x1="1473.98" x2="1480.5542" y1="207.0259" y2="207.0259"/><text fill="#000000" font-family="Verdana" font-size="14" lengthAdjust="spacing" textLength="124.4414" x="1480.5542" y="212.0938">realizes ClockPort</text><line style="stroke:#000000;stroke-width:1;" x1="1604.9956" x2="1611.5698" y1="207.0259" y2="207.0259"/></g><!--class Ctl--><g class="entity" data-qualified-name="Ctl" data-source-line="12" id="ent0001"><rect fill="#FFF3E0" height="95.0439" rx="2.5" ry="2.5" style="stroke:#000000;stroke-width:1;" width="339.0068" x="389.27" y="129.2346"/><ellipse cx="474.7143" cy="143.2346" fill="#FFFFFF" rx="9" ry="9" style="stroke:#000000;stroke-width:1;"/><path d="M477.1875,149.3777 Q476.6064,149.6765 475.9673,149.8259 Q475.3281,149.9753 474.6225,149.9753 Q472.1157,149.9753 470.7959,148.3235 Q469.4761,146.6716 469.4761,143.5505 Q469.4761,140.4211 470.7959,138.7693 Q472.1157,137.1174 474.6225,137.1174 Q475.3281,137.1174 475.9756,137.2668 Q476.623,137.4163 477.1875,137.7151 L477.1875,140.4377 Q476.5566,139.8567 475.9631,139.5869 Q475.3696,139.3171 474.7388,139.3171 Q473.394,139.3171 472.7092,140.3838 Q472.0244,141.4504 472.0244,143.5505 Q472.0244,145.6423 472.7092,146.709 Q473.394,147.7756 474.7388,147.7756 Q475.3696,147.7756 475.9631,147.5058 Q476.5566,147.2361 477.1875,146.655 Z " fill="#000000"/><text fill="#000000" font-family="Verdana" font-size="14" lengthAdjust="spacing" textLength="94.4795" x="492.2143" y="148.8025">SosController</text><rect fill="#FFFFFF" height="16.584" style="stroke:#000000;stroke-width:1;stroke-dasharray:2,2;" width="64.1387" x="667.1382" y="126.2346"/><text fill="#000000" font-family="Verdana" font-size="12" font-style="italic" lengthAdjust="spacing" textLength="62.1387" x="668.1382" y="139.2991">Led, Clock</text><line style="stroke:#000000;stroke-width:1;" x1="390.27" x2="727.2768" y1="157.2346" y2="157.2346"/><line style="stroke:#000000;stroke-width:1;" x1="390.27" x2="727.2768" y1="165.2346" y2="165.2346"/><g data-visibility-modifier="PUBLIC_METHOD"><ellipse cx="400.27" cy="179.2419" fill="#FFFFFF" rx="3" ry="3" style="stroke:#000000;stroke-width:1;"/></g><text fill="#000000" font-family="Verdana" font-size="14" lengthAdjust="spacing" textLength="315.0068" x="407.27" y="183.3098">SosController(Led&amp;, Clock&amp;, unit_ms = 200)</text><g data-visibility-modifier="PUBLIC_METHOD"><ellipse cx="400.27" cy="196.2566" fill="#FFFFFF" rx="3" ry="3" style="stroke:#000000;stroke-width:1;"/></g><text fill="#000000" font-family="Verdana" font-size="14" lengthAdjust="spacing" textLength="96.749" x="407.27" y="200.3245">begin() : void</text><g data-visibility-modifier="PUBLIC_METHOD"><ellipse cx="400.27" cy="213.2712" fill="#FFFFFF" rx="3" ry="3" style="stroke:#000000;stroke-width:1;"/></g><text fill="#000000" font-family="Verdana" font-size="14" lengthAdjust="spacing" textLength="83.166" x="407.27" y="217.3391">poll() : void</text></g><g class="entity" data-qualified-name="GMN7" data-source-line="31" id="ent0008"><path d="M11,140.1546 L11,213.3519 L334.542,213.3519 L334.542,150.1546 L324.542,140.1546 L11,140.1546" fill="#FFFFFF" style="stroke:#000000;stroke-width:1;"/><path d="M324.542,140.1546 L324.542,150.1546 L334.542,150.1546 L324.542,140.1546" fill="#FFFFFF" style="stroke:#000000;stroke-width:1;"/><text fill="#000000" font-family="Verdana" font-size="13" lengthAdjust="spacing" textLength="136.2397" x="17" y="158.2244">A LedPort shows one</text><text fill="#000000" font-family="Verdana" font-size="13" font-weight="700" lengthAdjust="spacing" textLength="38.1621" x="157.8101" y="158.2244">Color</text><text fill="#000000" font-family="Verdana" font-size="13" lengthAdjust="spacing" textLength="63.686" x="200.5425" y="158.2244">at a time.</text><text fill="#000000" font-family="Verdana" font-size="13" lengthAdjust="spacing" textLength="288.5518" x="17" y="174.0238">A Teensy RGB LED is one realization; a fake</text><text fill="#000000" font-family="Verdana" font-size="13" lengthAdjust="spacing" textLength="302.542" x="17" y="189.8231">that records colors satisfies the same contract</text><text fill="#000000" font-family="Verdana" font-size="13" lengthAdjust="spacing" textLength="226.605" x="17" y="205.6224">with NO change to the application.</text></g><g class="entity" data-qualified-name="GMN20" data-source-line="66" id="ent0021"><path d="M1484.32,337.6046 L1484.32,395.0026 L1851.2165,395.0026 L1851.2165,347.6046 L1841.2165,337.6046 L1484.32,337.6046" fill="#FFFFFF" style="stroke:#000000;stroke-width:1;"/><path d="M1841.2165,337.6046 L1841.2165,347.6046 L1851.2165,347.6046 L1841.2165,337.6046" fill="#FFFFFF" style="stroke:#000000;stroke-width:1;"/><text fill="#000000" font-family="Verdana" font-size="13" lengthAdjust="spacing" textLength="288.4121" x="1490.32" y="355.6744">test_sos_controller.cpp drives the controller</text><text fill="#000000" font-family="Verdana" font-size="13" lengthAdjust="spacing" textLength="328.9546" x="1490.32" y="371.4738">with FakeLed + FakeClock and checks the emitted</text><text fill="#000000" font-family="Verdana" font-size="13" lengthAdjust="spacing" textLength="345.8965" x="1490.32" y="387.2731">color sequence against the SOS program - no board.</text></g><!--link Ctl to LedPort--><g class="link" data-entity-1="ent0001" data-entity-2="ent0003" data-link-type="dependency" data-source-line="27" id="lnk5"><path codeLine="27" d="M728.62,222.3346 C781.56,222.3346 826.36,222.3346 826.36,222.3346 C826.36,222.3346 826.36,272.1746 826.36,314.1646" fill="none" id="Ctl-to-LedPort" style="stroke:#000000;stroke-width:1;stroke-dasharray:7,7;"/><polygon fill="#000000" points="826.36,319.1646,830.36,310.1646,826.36,314.1646,822.36,310.1646,826.36,319.1646" style="stroke:#000000;stroke-width:1;stroke-linejoin:miter;stroke-miterlimit:10;"/><text fill="#000000" font-family="Verdana" font-size="13" lengthAdjust="spacing" textLength="29.5166" x="795.91" y="236.4044">uses</text></g><!--link Ctl to ClockPort--><g class="link" data-entity-1="ent0001" data-entity-2="ent0004" data-link-type="dependency" data-source-line="28" id="lnk6"><path codeLine="28" d="M728.57,217.3346 C861.36,217.3346 1023.63,217.3346 1023.63,217.3346 C1023.63,217.3346 1023.63,270.5246 1023.63,314.1746" fill="none" id="Ctl-to-ClockPort" style="stroke:#000000;stroke-width:1;stroke-dasharray:7,7;"/><polygon fill="#000000" points="1023.63,319.1746,1027.63,310.1746,1023.63,314.1746,1019.63,310.1746,1023.63,319.1746" style="stroke:#000000;stroke-width:1;stroke-linejoin:miter;stroke-miterlimit:10;"/><text fill="#000000" font-family="Verdana" font-size="13" lengthAdjust="spacing" textLength="29.5166" x="897.02" y="231.4044">uses</text></g><!--link GMN7 to LedPort--><g class="link" data-entity-1="ent0008" data-entity-2="ent0003" data-link-type="association" data-source-line="31" id="lnk9"><path d="M172.77,213.7546 C172.77,268.9246 172.77,366.3346 172.77,366.3346 C172.77,366.3346 592.81,366.3346 780.27,366.3346" fill="none" id="GMN7-LedPort" style="stroke:#000000;stroke-width:1;stroke-dasharray:7,7;"/></g><!--link LedAdapter to LedPort--><g class="link" data-entity-1="ent0011" data-entity-2="ent0003" data-link-type="extension" data-source-line="60" id="lnk16"><path codeLine="60" d="M869.85,216.0246 C869.85,245.9546 869.85,269.2846 869.85,301.0346" fill="none" id="LedAdapter-to-LedPort" style="stroke:#000000;stroke-width:1;stroke-dasharray:7,7;"/><polygon fill="none" points="869.85,319.0346,875.85,301.0346,863.85,301.0346,869.85,319.0346" style="stroke:#000000;stroke-width:1;stroke-linejoin:miter;stroke-miterlimit:10;"/></g><!--link ClockAdapter to ClockPort--><g class="link" data-entity-1="ent0012" data-entity-2="ent0004" data-link-type="extension" data-source-line="61" id="lnk17"><path codeLine="61" d="M1101.77,216.0246 C1101.77,245.9546 1101.77,269.2846 1101.77,301.0346" fill="none" id="ClockAdapter-to-ClockPort" style="stroke:#000000;stroke-width:1;stroke-dasharray:7,7;"/><polygon fill="none" points="1101.77,319.0346,1107.77,301.0346,1095.77,301.0346,1101.77,319.0346" style="stroke:#000000;stroke-width:1;stroke-linejoin:miter;stroke-miterlimit:10;"/></g><!--link FakeLed to LedPort--><g class="link" data-entity-1="ent0014" data-entity-2="ent0003" data-link-type="extension" data-source-line="62" id="lnk18"><path codeLine="62" d="M1239.39,219.3346 C1117.29,219.3346 913.33,219.3346 913.33,219.3346 C913.33,219.3346 913.33,258.0346 913.33,300.9946" fill="none" id="FakeLed-to-LedPort" style="stroke:#000000;stroke-width:1;stroke-dasharray:7,7;"/><polygon fill="none" points="913.33,318.9946,919.33,300.9946,907.33,300.9946,913.33,318.9946" style="stroke:#000000;stroke-width:1;stroke-linejoin:miter;stroke-miterlimit:10;"/></g><!--link FakeClock to ClockPort--><g class="link" data-entity-1="ent0015" data-entity-2="ent0004" data-link-type="extension" data-source-line="63" id="lnk19"><path codeLine="63" d="M1478.65,224.2946 C1478.65,268.7546 1478.65,328.3346 1478.65,328.3346 C1478.65,328.3346 1321.54,328.3346 1210.04,328.3346" fill="none" id="FakeClock-to-ClockPort" style="stroke:#000000;stroke-width:1;stroke-dasharray:7,7;"/><polygon fill="none" points="1192.04,328.3346,1210.04,334.3346,1210.04,322.3346,1192.04,328.3346" style="stroke:#000000;stroke-width:1;stroke-linejoin:miter;stroke-miterlimit:10;"/></g><!--link Test to GMN20--><g class="link" data-entity-1="ent0013" data-entity-2="ent0021" data-link-type="association" data-source-line="66" id="lnk22"><path d="M1667.77,248.4053 C1667.77,250.4607 1667.77,252.5316 1667.77,254.6137 C1667.77,258.7779 1667.77,262.9872 1667.77,267.2079 C1667.77,275.6493 1667.77,284.1365 1667.77,292.4009 C1667.77,308.9296 1667.77,324.5671 1667.77,337.1646" fill="none" id="Test-GMN20" style="stroke:#000000;stroke-width:1;stroke-dasharray:7,7;"/></g><g class="legend" data-source-line="71"><rect fill="none" height="78.0586" rx="7.5" ry="7.5" style="stroke:#000000;stroke-width:1;" width="448.8604" x="1405.3561" y="443.3346"/><text fill="#000000" font-family="Verdana" font-size="14" lengthAdjust="spacing" textLength="377.0703" x="1410.3561" y="462.4098">The ports are the universal API. An adapter is chosen</text><text fill="#000000" font-family="Verdana" font-size="14" lengthAdjust="spacing" textLength="409.7119" x="1410.3561" y="479.4245">at the composition root (main.cpp or the Arduino sketch);</text><text fill="#000000" font-family="Verdana" font-size="14" lengthAdjust="spacing" textLength="393.251" x="1410.3561" y="496.4391">the application is written once against the concepts and</text><text fill="#000000" font-family="Verdana" font-size="14" lengthAdjust="spacing" textLength="438.8604" x="1410.3561" y="513.4538">never changes when the LED, board, or clock source changes.</text></g></g></svg>