<svg xmlns="http://www.w3.org/2000/svg" xmlns:xlink="http://www.w3.org/1999/xlink" contentStyleType="text/css" data-diagram-type="DESCRIPTION" height="992px" preserveAspectRatio="none" style="width:2048px;height:992px;background:#FFFFFF;" version="1.1" viewBox="0 0 2048 992" width="2048px" zoomAndPan="magnify"><?plantuml 1.2026.6?><defs/><g><g class="title" data-source-line="7"><text fill="#000000" font-family="Verdana" font-size="22" font-weight="700" lengthAdjust="spacing" textLength="434.8652" x="805.5674" y="37.1182">teensy_sos - SOS Morse RGB Demo</text><text fill="#000000" font-family="Verdana" font-size="22" font-weight="700" lengthAdjust="spacing" textLength="645.7559" x="700.1221" y="63.8555">Hybrid DDD / Clean / Hexagonal (Ports &amp; Adapters)</text><text fill="#000000" font-family="Verdana" font-size="22" font-weight="700" lengthAdjust="spacing" textLength="868.1406" x="588.9297" y="90.5928">One canonical library (lib/TeensySos), two thin CLI composition roots</text></g><!--cluster Root--><g class="cluster" data-qualified-name="Root" data-source-line="10" id="ent0001"><path d="M13.5,112.2119 L213.0498,112.2119 A3.75,3.75 0 0 1 215.5498,114.7119 L222.5498,135.2266 L426.5,135.2266 A2.5,2.5 0 0 1 429,137.7266 L429,410.5419 A2.5,2.5 0 0 1 426.5,413.0419 L13.5,413.0419 A2.5,2.5 0 0 1 11,410.5419 L11,114.7119 A2.5,2.5 0 0 1 13.5,112.2119" fill="#FFE0B2" style="stroke:#000000;stroke-width:1;"/><line style="stroke:#000000;stroke-width:1;" x1="11" x2="222.5498" y1="135.2266" y2="135.2266"/><text fill="#000000" font-family="Verdana" font-size="14" font-weight="700" lengthAdjust="spacing" textLength="198.5498" x="15" y="128.2871">Composition Roots (thin)</text></g><!--cluster App--><g class="cluster" data-qualified-name="App" data-source-line="24" id="ent0007"><path d="M455.5,290.1319 L684.4854,290.1319 A3.75,3.75 0 0 1 686.9854,292.6319 L693.9854,313.1466 L1230.5,313.1466 A2.5,2.5 0 0 1 1233,315.6466 L1233,573.7419 A2.5,2.5 0 0 1 1230.5,576.2419 L455.5,576.2419 A2.5,2.5 0 0 1 453,573.7419 L453,292.6319 A2.5,2.5 0 0 1 455.5,290.1319" fill="#FFF3E0" style="stroke:#000000;stroke-width:1;"/><line style="stroke:#000000;stroke-width:1;" x1="453" x2="693.9854" y1="313.1466" y2="313.1466"/><text fill="#000000" font-family="Verdana" font-size="14" font-weight="700" lengthAdjust="spacing" textLength="227.9854" x="457" y="306.2071">Application Layer  (sos::app)</text></g><!--cluster Dom--><g class="cluster" data-qualified-name="Dom" data-source-line="37" id="ent0014"><path d="M71.5,460.6219 L301.6816,460.6219 A3.75,3.75 0 0 1 304.1816,463.1219 L311.1816,483.6366 L426.5,483.6366 A2.5,2.5 0 0 1 429,486.1366 L429,848.1519 A2.5,2.5 0 0 1 426.5,850.6519 L71.5,850.6519 A2.5,2.5 0 0 1 69,848.1519 L69,463.1219 A2.5,2.5 0 0 1 71.5,460.6219" fill="#E8F5E9" style="stroke:#000000;stroke-width:1;"/><line style="stroke:#000000;stroke-width:1;" x1="69" x2="311.1816" y1="483.6366" y2="483.6366"/><text fill="#000000" font-family="Verdana" font-size="14" font-weight="700" lengthAdjust="spacing" textLength="229.1816" x="73" y="476.6971">Domain Layer  (sos::domain)</text></g><!--cluster Infra--><g class="cluster" data-qualified-name="Infra" data-source-line="48" id="ent0020"><path d="M1259.5,290.1319 L1641.8428,290.1319 A3.75,3.75 0 0 1 1644.3428,292.6319 L1651.3428,313.1466 L1651.5,313.1466 A2.5,2.5 0 0 1 1654,315.6466 L1654,565.8419 A2.5,2.5 0 0 1 1651.5,568.3419 L1259.5,568.3419 A2.5,2.5 0 0 1 1257,565.8419 L1257,292.6319 A2.5,2.5 0 0 1 1259.5,290.1319" fill="#E3F2FD" style="stroke:#000000;stroke-width:1;"/><line style="stroke:#000000;stroke-width:1;" x1="1257" x2="1651.3428" y1="313.1466" y2="313.1466"/><text fill="#000000" font-family="Verdana" font-size="14" font-weight="700" lengthAdjust="spacing" textLength="381.3428" x="1261" y="306.2071">Infrastructure Layer (Adapters)  (sos::platform)</text></g><!--cluster Kernel--><g class="cluster" data-qualified-name="Kernel" data-source-line="59" id="ent0026"><path d="M1683.5,120.7219 L1892.0869,120.7219 A3.75,3.75 0 0 1 1894.5869,123.2219 L1901.5869,143.7366 L2030.5,143.7366 A2.5,2.5 0 0 1 2033,146.2366 L2033,402.6419 A2.5,2.5 0 0 1 2030.5,405.1419 L1683.5,405.1419 A2.5,2.5 0 0 1 1681,402.6419 L1681,123.2219 A2.5,2.5 0 0 1 1683.5,120.7219" fill="#F3E5F5" style="stroke:#000000;stroke-width:1;"/><line style="stroke:#000000;stroke-width:1;" x1="1681" x2="1901.5869" y1="143.7366" y2="143.7366"/><text fill="#000000" font-family="Verdana" font-size="14" font-weight="700" lengthAdjust="spacing" textLength="207.5869" x="1685" y="136.7971">Shared Kernel  (sos::core)</text></g><!--entity Main--><g class="entity" data-qualified-name="Root.Main" data-source-line="11" id="ent0002"><rect fill="#FFFFFF" height="54.0293" rx="2.5" ry="2.5" style="stroke:#000000;stroke-width:1;" width="137.2295" x="81.39" y="148.2119"/><text fill="#000000" font-family="Verdana" font-size="14" lengthAdjust="spacing" textLength="91.4785" x="91.39" y="172.2871">src/main.cpp</text><text fill="#000000" font-family="Verdana" font-size="14" lengthAdjust="spacing" textLength="117.2295" x="91.39" y="189.3018">(PlatformIO CLI)</text></g><!--entity Ino--><g class="entity" data-qualified-name="Root.Ino" data-source-line="12" id="ent0003"><rect fill="#FFFFFF" height="54.0293" rx="2.5" ry="2.5" style="stroke:#000000;stroke-width:1;" width="124.9111" x="288.54" y="148.2119"/><text fill="#000000" font-family="Verdana" font-size="14" lengthAdjust="spacing" textLength="104.9111" x="298.54" y="172.2871">teensy_sos.ino</text><text fill="#000000" font-family="Verdana" font-size="14" lengthAdjust="spacing" textLength="95.4229" x="298.54" y="189.3018">(Arduino CLI)</text></g><g class="entity" data-qualified-name="Root.GMN4" data-source-line="14" id="ent0005"><path d="M27.2,292.2419 L27.2,397.0378 A0,0 0 0 0 27.2,397.0378 L412.8094,397.0378 A0,0 0 0 0 412.8094,397.0378 L412.8094,302.2419 L402.8094,292.2419 L112.83,292.2419 L108.83,202.4519 L104.83,292.2419 L27.2,292.2419 A0,0 0 0 0 27.2,292.2419" fill="#FFFFFF" style="stroke:#000000;stroke-width:1;"/><path d="M402.8094,292.2419 L402.8094,302.2419 L412.8094,302.2419 L402.8094,292.2419" fill="#FFFFFF" style="stroke:#000000;stroke-width:1;"/><text fill="#000000" font-family="Verdana" font-size="13" lengthAdjust="spacing" textLength="315.561" x="33.2" y="310.3117">Two thin roots, one per command-line frontend.</text><text fill="#000000" font-family="Verdana" font-size="13" lengthAdjust="spacing" textLength="322.6069" x="33.2" y="326.1111">Each owns the concrete adapters and wires them</text><text fill="#000000" font-family="Verdana" font-size="13" lengthAdjust="spacing" textLength="364.6094" x="33.2" y="341.9104">into the controller (setup() = bring-up, loop() = poll()).</text><text fill="#000000" font-family="Verdana" font-size="13" font-weight="700" lengthAdjust="spacing" textLength="130.3237" x="33.2" y="357.7097">No SOS logic here</text><text fill="#000000" font-family="Verdana" font-size="13" lengthAdjust="spacing" textLength="161.8525" x="168.094" y="357.7097">- both compile the SAME</text><text fill="#000000" font-family="Verdana" font-size="13" lengthAdjust="spacing" textLength="328.5674" x="33.2" y="373.509">canonical library (lib/TeensySos), so they produce</text><text fill="#000000" font-family="Verdana" font-size="13" lengthAdjust="spacing" textLength="121.8433" x="33.2" y="389.3083">identical firmware.</text></g><!--entity Ctl--><g class="entity" data-qualified-name="App.Ctl" data-source-line="25" id="ent0008"><rect fill="#FFFFFF" height="37.0146" rx="2.5" ry="2.5" style="stroke:#000000;stroke-width:1;" width="209.957" x="483.02" y="326.1319"/><text fill="#000000" font-family="Verdana" font-size="14" lengthAdjust="spacing" textLength="189.957" x="493.02" y="350.2071">SosController&lt;Led, Clock&gt;</text></g><!--entity LedPort--><g class="entity" data-qualified-name="App.LedPort" data-source-line="26" id="ent0009"><ellipse cx="1144" cy="523.6419" fill="#FFFFFF" rx="8" ry="8" style="stroke:#000000;stroke-width:1;"/><text fill="#000000" font-family="Verdana" font-size="14" lengthAdjust="spacing" textLength="130.7783" x="1078.6108" y="554.7171">&#171;concept&#187; LedPort</text></g><!--entity ClockPort--><g class="entity" data-qualified-name="App.ClockPort" data-source-line="27" id="ent0010"><ellipse cx="922" cy="523.6419" fill="#FFFFFF" rx="8" ry="8" style="stroke:#000000;stroke-width:1;"/><text fill="#000000" font-family="Verdana" font-size="14" lengthAdjust="spacing" textLength="143.6162" x="850.1919" y="554.7171">&#171;concept&#187; ClockPort</text></g><g class="entity" data-qualified-name="App.GMN11" data-source-line="29" id="ent0012"><path d="M469.28,487.0419 L469.28,560.2392 A0,0 0 0 0 469.28,560.2392 L772.719,560.2392 A0,0 0 0 0 772.719,560.2392 L772.719,497.0419 L762.719,487.0419 L592,487.0419 L588,363.4619 L584,487.0419 L469.28,487.0419 A0,0 0 0 0 469.28,487.0419" fill="#FFFFFF" style="stroke:#000000;stroke-width:1;"/><path d="M762.719,487.0419 L762.719,497.0419 L772.719,497.0419 L762.719,487.0419" fill="#FFFFFF" style="stroke:#000000;stroke-width:1;"/><text fill="#000000" font-family="Verdana" font-size="13" lengthAdjust="spacing" textLength="147.145" x="475.28" y="505.1117">Header-only template,</text><text fill="#000000" font-family="Verdana" font-size="13" font-weight="700" lengthAdjust="spacing" textLength="92.9932" x="626.9953" y="505.1117">Arduino-free</text><text fill="#000000" font-family="Verdana" font-size="13" lengthAdjust="spacing" textLength="4.729" x="719.9885" y="505.1117">.</text><text fill="#000000" font-family="Verdana" font-size="13" lengthAdjust="spacing" textLength="253.1382" x="475.28" y="520.9111">Owns the timed SOS program, steps it</text><text fill="#000000" font-family="Verdana" font-size="13" lengthAdjust="spacing" textLength="247.7935" x="475.28" y="536.7104">non-blocking against the clock, drives</text><text fill="#000000" font-family="Verdana" font-size="13" lengthAdjust="spacing" textLength="282.439" x="475.28" y="552.5097">the LED. Depends only on ports + Domain.</text></g><!--entity Values--><g class="entity" data-qualified-name="Dom.Values" data-source-line="38" id="ent0015"><rect fill="#FFFFFF" height="37.0146" rx="2.5" ry="2.5" style="stroke:#000000;stroke-width:1;" width="204.4883" x="170.76" y="650.2419"/><text fill="#000000" font-family="Verdana" font-size="14" lengthAdjust="spacing" textLength="184.4883" x="180.76" y="674.3171">Color / Symbol / Segment</text></g><!--entity Encoder--><g class="entity" data-qualified-name="Dom.Encoder" data-source-line="39" id="ent0016"><rect fill="#FFFFFF" height="54.0293" rx="2.5" ry="2.5" style="stroke:#000000;stroke-width:1;" width="202.0273" x="196.99" y="496.6219"/><text fill="#000000" font-family="Verdana" font-size="14" lengthAdjust="spacing" textLength="98.4443" x="206.99" y="520.6971">MorseEncoder</text><text fill="#000000" font-family="Verdana" font-size="14" lengthAdjust="spacing" textLength="182.0273" x="206.99" y="537.7118">(build_sos -&gt; Segment[])</text></g><g class="entity" data-qualified-name="Dom.GMN17" data-source-line="41" id="ent0018"><path d="M85.23,777.2519 L85.23,834.6499 A0,0 0 0 0 85.23,834.6499 L412.7774,834.6499 A0,0 0 0 0 412.7774,834.6499 L412.7774,787.2519 L402.7774,777.2519 L277,777.2519 L273,687.5319 L269,777.2519 L85.23,777.2519 A0,0 0 0 0 85.23,777.2519" fill="#FFFFFF" style="stroke:#000000;stroke-width:1;"/><path d="M402.7774,777.2519 L402.7774,787.2519 L412.7774,787.2519 L402.7774,777.2519" fill="#FFFFFF" style="stroke:#000000;stroke-width:1;"/><text fill="#000000" font-family="Verdana" font-size="13" lengthAdjust="spacing" textLength="255.5313" x="91.23" y="795.3217">Pure Morse vocabulary + timing ratios.</text><text fill="#000000" font-family="Verdana" font-size="13" lengthAdjust="spacing" textLength="248.5869" x="91.23" y="811.1211">build_sos() expands S-O-S into a flat,</text><text fill="#000000" font-family="Verdana" font-size="13" lengthAdjust="spacing" textLength="150.833" x="91.23" y="826.9204">host-testable program.</text><text fill="#000000" font-family="Verdana" font-size="13" font-weight="700" lengthAdjust="spacing" textLength="151.144" x="246.6333" y="826.9204">Depends on nothing.</text></g><!--entity LedAdapter--><g class="entity" data-qualified-name="Infra.LedAdapter" data-source-line="49" id="ent0021"><rect fill="#FFFFFF" height="37.0146" rx="2.5" ry="2.5" style="stroke:#000000;stroke-width:1;" width="177.0352" x="1450.48" y="326.1319"/><text fill="#000000" font-family="Verdana" font-size="14" lengthAdjust="spacing" textLength="157.0352" x="1460.48" y="350.2071">TeensyRgbLedAdapter</text></g><!--entity ClockAdapter--><g class="entity" data-qualified-name="Infra.ClockAdapter" data-source-line="50" id="ent0022"><rect fill="#FFFFFF" height="37.0146" rx="2.5" ry="2.5" style="stroke:#000000;stroke-width:1;" width="107.4385" x="1273.28" y="326.1319"/><text fill="#000000" font-family="Verdana" font-size="14" lengthAdjust="spacing" textLength="87.4385" x="1283.28" y="350.2071">TeensyClock</text></g><g class="entity" data-qualified-name="Infra.GMN23" data-source-line="52" id="ent0024"><path d="M1287.22,494.9419 L1287.22,552.3399 A0,0 0 0 0 1287.22,552.3399 L1572.784,552.3399 A0,0 0 0 0 1572.784,552.3399 L1572.784,504.9419 L1562.784,494.9419 L1536.02,494.9419 L1532.02,363.4619 L1528.02,494.9419 L1287.22,494.9419 A0,0 0 0 0 1287.22,494.9419" fill="#FFFFFF" style="stroke:#000000;stroke-width:1;"/><path d="M1562.784,494.9419 L1562.784,504.9419 L1572.784,504.9419 L1562.784,494.9419" fill="#FFFFFF" style="stroke:#000000;stroke-width:1;"/><text fill="#000000" font-family="Verdana" font-size="13" lengthAdjust="spacing" textLength="204.1914" x="1293.22" y="513.0117">Driven adapters (Teensy core).</text><text fill="#000000" font-family="Verdana" font-size="13" lengthAdjust="spacing" textLength="264.564" x="1293.22" y="528.8111">pinMode/digitalWriteFast on R/G/B pins;</text><text fill="#000000" font-family="Verdana" font-size="13" lengthAdjust="spacing" textLength="262.7993" x="1293.22" y="544.6104">::millis(). The only Arduino-aware code.</text></g><!--entity Core--><g class="entity" data-qualified-name="Kernel.Core" data-source-line="60" id="ent0027"><rect fill="#FFFFFF" height="37.0146" rx="2.5" ry="2.5" style="stroke:#000000;stroke-width:1;" width="52.5869" x="1830.71" y="156.7219"/><text fill="#000000" font-family="Verdana" font-size="14" lengthAdjust="spacing" textLength="32.5869" x="1840.71" y="180.7971">Core</text></g><g class="entity" data-qualified-name="Kernel.GMN28" data-source-line="62" id="ent0029"><path d="M1697.02,300.1419 L1697.02,389.1385 A0,0 0 0 0 1697.02,389.1385 L2016.9731,389.1385 A0,0 0 0 0 2016.9731,389.1385 L2016.9731,310.1419 L2006.9731,300.1419 L1861,300.1419 L1857,194.0119 L1853,300.1419 L1697.02,300.1419 A0,0 0 0 0 1697.02,300.1419" fill="#FFFFFF" style="stroke:#000000;stroke-width:1;"/><path d="M2006.9731,300.1419 L2006.9731,310.1419 L2016.9731,310.1419 L2006.9731,300.1419" fill="#FFFFFF" style="stroke:#000000;stroke-width:1;"/><text fill="#000000" font-family="Verdana" font-size="13" lengthAdjust="spacing" textLength="169.165" x="1703.02" y="318.2117">Result&lt;T,E&gt;, Option&lt;T&gt;,</text><text fill="#000000" font-family="Verdana" font-size="13" lengthAdjust="spacing" textLength="238.1514" x="1703.02" y="334.0111">FixedQueue&lt;T,N&gt; (SPSC, no heap).</text><rect fill="#000000" height="3.5" width="3.5" x="1712.02" y="342.5399"/><text fill="#000000" font-family="Verdana" font-size="13" lengthAdjust="spacing" textLength="282.9531" x="1719.02" y="349.8104">Available starter component - NOT used by</text><text fill="#000000" font-family="Verdana" font-size="13" lengthAdjust="spacing" textLength="285.8413" x="1703.02" y="365.6097">the trivial SOS demo.** Real firmware built</text><text fill="#000000" font-family="Verdana" font-size="13" lengthAdjust="spacing" textLength="217.0898" x="1703.02" y="381.409">from this template reaches for it.</text></g><!--link Main to Ctl--><g class="link" data-entity-1="ent0002" data-entity-2="ent0008" data-link-type="dependency" data-source-line="71" id="lnk31"><path d="M136.28,202.5419 C136.28,230.4319 136.28,269.6519 136.28,269.6519 C136.28,269.6519 553.01,269.6519 553.01,269.6519 C553.01,269.6519 553.01,298.5019 553.01,320.7219" fill="none" id="Main-to-Ctl" style="stroke:#000000;stroke-width:1;"/><polygon fill="#000000" points="553.01,325.7219,557.01,316.7219,553.01,320.7219,549.01,316.7219,553.01,325.7219" style="stroke:#000000;stroke-width:1;stroke-linejoin:miter;stroke-miterlimit:10;"/></g><!--link Main to LedAdapter--><g class="link" data-entity-1="ent0002" data-entity-2="ent0021" data-link-type="dependency" data-source-line="72" id="lnk32"><path d="M191.17,202.5419 C191.17,213.9719 191.17,224.6519 191.17,224.6519 C191.17,224.6519 1509.49,224.6519 1509.49,224.6519 C1509.49,224.6519 1509.49,287.1519 1509.49,320.8919" fill="none" id="Main-to-LedAdapter" style="stroke:#000000;stroke-width:1;"/><polygon fill="#000000" points="1509.49,325.8919,1513.49,316.8919,1509.49,320.8919,1505.49,316.8919,1509.49,325.8919" style="stroke:#000000;stroke-width:1;stroke-linejoin:miter;stroke-miterlimit:10;"/></g><!--link Main to ClockAdapter--><g class="link" data-entity-1="ent0002" data-entity-2="ent0022" data-link-type="dependency" data-source-line="73" id="lnk33"><path d="M163.72,202.6119 C163.72,223.1219 163.72,247.6519 163.72,247.6519 C163.72,247.6519 1309.09,247.6519 1309.09,247.6519 C1309.09,247.6519 1309.09,292.7619 1309.09,320.9419" fill="none" id="Main-to-ClockAdapter" style="stroke:#000000;stroke-width:1;"/><polygon fill="#000000" points="1309.09,325.9419,1313.09,316.9419,1309.09,320.9419,1305.09,316.9419,1309.09,325.9419" style="stroke:#000000;stroke-width:1;stroke-linejoin:miter;stroke-miterlimit:10;"/></g><!--link Ino to Ctl--><g class="link" data-entity-1="ent0003" data-entity-2="ent0008" data-link-type="dependency" data-source-line="74" id="lnk34"><path d="M413.74,199.6519 C494.07,199.6519 622.99,199.6519 622.99,199.6519 C622.99,199.6519 622.99,281.3919 622.99,320.6919" fill="none" id="Ino-to-Ctl" style="stroke:#000000;stroke-width:1;"/><polygon fill="#000000" points="622.99,325.6919,626.99,316.6919,622.99,320.6919,618.99,316.6919,622.99,325.6919" style="stroke:#000000;stroke-width:1;stroke-linejoin:miter;stroke-miterlimit:10;"/></g><!--link Ino to LedAdapter--><g class="link" data-entity-1="ent0003" data-entity-2="ent0021" data-link-type="dependency" data-source-line="75" id="lnk35"><path d="M413.89,195.6519 C663.21,195.6519 1568.51,195.6519 1568.51,195.6519 C1568.51,195.6519 1568.51,280.6819 1568.51,320.7719" fill="none" id="Ino-to-LedAdapter" style="stroke:#000000;stroke-width:1;"/><polygon fill="#000000" points="1568.51,325.7719,1572.51,316.7719,1568.51,320.7719,1564.51,316.7719,1568.51,325.7719" style="stroke:#000000;stroke-width:1;stroke-linejoin:miter;stroke-miterlimit:10;"/></g><!--link Ino to ClockAdapter--><g class="link" data-entity-1="ent0003" data-entity-2="ent0022" data-link-type="dependency" data-source-line="76" id="lnk36"><path d="M413.93,197.6519 C632.41,197.6519 1344.91,197.6519 1344.91,197.6519 C1344.91,197.6519 1344.91,281.0319 1344.91,320.7319" fill="none" id="Ino-to-ClockAdapter" style="stroke:#000000;stroke-width:1;"/><polygon fill="#000000" points="1344.91,325.7319,1348.91,316.7319,1344.91,320.7319,1340.91,316.7319,1344.91,325.7319" style="stroke:#000000;stroke-width:1;stroke-linejoin:miter;stroke-miterlimit:10;"/></g><!--link Ctl to LedPort--><g class="link" data-entity-1="ent0008" data-entity-2="ent0009" data-link-type="dependency" data-source-line="79" id="lnk37"><path d="M693.36,335.6519 C848.36,335.6519 1119.67,335.6519 1119.67,335.6519 C1119.67,335.6519 1119.67,512.8119 1119.67,518.5019" fill="none" id="Ctl-to-LedPort" style="stroke:#000000;stroke-width:1;"/><polygon fill="#000000" points="1119.67,523.5019,1123.67,514.5019,1119.67,518.5019,1115.67,514.5019,1119.67,523.5019" style="stroke:#000000;stroke-width:1;stroke-linejoin:miter;stroke-miterlimit:10;"/></g><!--link Ctl to ClockPort--><g class="link" data-entity-1="ent0008" data-entity-2="ent0010" data-link-type="dependency" data-source-line="80" id="lnk38"><path d="M693.45,353.6519 C782.51,353.6519 895.67,353.6519 895.67,353.6519 C895.67,353.6519 895.67,513.3719 895.67,518.5219" fill="none" id="Ctl-to-ClockPort" style="stroke:#000000;stroke-width:1;"/><polygon fill="#000000" points="895.67,523.5219,899.67,514.5219,895.67,518.5219,891.67,514.5219,895.67,523.5219" style="stroke:#000000;stroke-width:1;stroke-linejoin:miter;stroke-miterlimit:10;"/></g><!--link Ctl to Values--><g class="link" data-entity-1="ent0008" data-entity-2="ent0015" data-link-type="dependency" data-source-line="81" id="lnk39"><path d="M482.52,350.6519 C464.08,350.6519 450.67,350.6519 450.67,350.6519 C450.67,350.6519 450.67,662.6519 450.67,662.6519 C450.67,662.6519 419.97,662.6519 380.58,662.6519" fill="none" id="Ctl-to-Values" style="stroke:#000000;stroke-width:1;stroke-dasharray:7,7;"/><polygon fill="#000000" points="375.58,662.6519,384.58,666.6519,380.58,662.6519,384.58,658.6519,375.58,662.6519" style="stroke:#000000;stroke-width:1;stroke-linejoin:miter;stroke-miterlimit:10;"/></g><!--link Ctl to Encoder--><g class="link" data-entity-1="ent0008" data-entity-2="ent0016" data-link-type="dependency" data-source-line="82" id="lnk40"><path d="M482.69,338.6519 C454.68,338.6519 432.06,338.6519 432.06,338.6519 C432.06,338.6519 432.06,523.6519 432.06,523.6519 C432.06,523.6519 423.14,523.6519 404.27,523.6519" fill="none" id="Ctl-to-Encoder" style="stroke:#000000;stroke-width:1;stroke-dasharray:7,7;"/><polygon fill="#000000" points="399.27,523.6519,408.27,527.6519,404.27,523.6519,408.27,519.6519,399.27,523.6519" style="stroke:#000000;stroke-width:1;stroke-linejoin:miter;stroke-miterlimit:10;"/></g><!--link Encoder to Values--><g class="link" data-entity-1="ent0016" data-entity-2="ent0015" data-link-type="dependency" data-source-line="83" id="lnk41"><path d="M286.12,550.9319 C286.12,579.8319 286.12,619.6819 286.12,644.8919" fill="none" id="Encoder-to-Values" style="stroke:#000000;stroke-width:1;stroke-dasharray:7,7;"/><polygon fill="#000000" points="286.12,649.8919,290.12,640.8919,286.12,644.8919,282.12,640.8919,286.12,649.8919" style="stroke:#000000;stroke-width:1;stroke-linejoin:miter;stroke-miterlimit:10;"/></g><!--link LedAdapter to LedPort--><g class="link" data-entity-1="ent0021" data-entity-2="ent0009" data-link-type="extension" data-source-line="86" id="lnk42"><path d="M1491.25,363.3919 C1491.25,369.9219 1491.25,375.6519 1491.25,375.6519 C1491.25,375.6519 1168.33,375.6519 1168.33,375.6519 C1168.33,375.6519 1168.33,501.0519 1168.33,505.5319" fill="none" id="LedAdapter-to-LedPort" style="stroke:#000000;stroke-width:1;stroke-dasharray:7,7;"/><polygon fill="none" points="1168.33,523.5319,1174.33,505.5319,1162.33,505.5319,1168.33,523.5319" style="stroke:#000000;stroke-width:1;stroke-linejoin:miter;stroke-miterlimit:10;"/></g><!--link ClockAdapter to ClockPort--><g class="link" data-entity-1="ent0022" data-entity-2="ent0010" data-link-type="extension" data-source-line="87" id="lnk43"><path d="M1273.15,344.6519 C1168.61,344.6519 948.33,344.6519 948.33,344.6519 C948.33,344.6519 948.33,500.0919 948.33,505.5119" fill="none" id="ClockAdapter-to-ClockPort" style="stroke:#000000;stroke-width:1;stroke-dasharray:7,7;"/><polygon fill="none" points="948.33,523.5119,954.33,505.5119,942.33,505.5119,948.33,523.5119" style="stroke:#000000;stroke-width:1;stroke-linejoin:miter;stroke-miterlimit:10;"/></g><!--link LedAdapter to Values--><g class="link" data-entity-1="ent0021" data-entity-2="ent0015" data-link-type="dependency" data-source-line="88" id="lnk44"><path d="M1600.15,363.3319 C1600.15,433.1419 1600.15,674.6519 1600.15,674.6519 C1600.15,674.6519 691.78,674.6519 380.48,674.6519" fill="none" id="LedAdapter-to-Values" style="stroke:#000000;stroke-width:1;stroke-dasharray:7,7;"/><polygon fill="#000000" points="375.48,674.6519,384.48,678.6519,380.48,674.6519,384.48,670.6519,375.48,674.6519" style="stroke:#000000;stroke-width:1;stroke-linejoin:miter;stroke-miterlimit:10;"/></g><g class="legend" data-source-line="94"><rect fill="none" height="116.0879" rx="7.5" ry="7.5" style="stroke:#000000;stroke-width:1;" width="538.3975" x="1497.6025" y="864.6519"/><text fill="#000000" font-family="Verdana" font-size="14" font-weight="700" lengthAdjust="spacing" textLength="35.0068" x="1507.3877" y="885.7271">Rule</text><text fill="#000000" font-family="Verdana" font-size="14" lengthAdjust="spacing" textLength="62.9521" x="1848.7813" y="885.7271">Direction</text><text fill="#000000" font-family="Verdana" font-size="14" lengthAdjust="spacing" textLength="248.8008" x="1507.5244" y="902.7418">Composition roots (both frontends)</text><text fill="#000000" font-family="Verdana" font-size="14" lengthAdjust="spacing" textLength="177.2969" x="1848.7813" y="902.7418">may depend on all layers</text><text fill="#000000" font-family="Verdana" font-size="14" lengthAdjust="spacing" textLength="331.4131" x="1507.5244" y="919.7564">Infrastructure -&gt; Application (ports) + Domain</text><text fill="#000000" font-family="Verdana" font-size="14" lengthAdjust="spacing" textLength="81.6689" x="1848.7813" y="919.7564">inward only</text><text fill="#000000" font-family="Verdana" font-size="14" lengthAdjust="spacing" textLength="158.7852" x="1507.5244" y="936.7711">Application -&gt; Domain</text><text fill="#000000" font-family="Verdana" font-size="14" lengthAdjust="spacing" textLength="81.6689" x="1848.7813" y="936.7711">inward only</text><text fill="#000000" font-family="Verdana" font-size="14" lengthAdjust="spacing" textLength="134.8252" x="1507.5244" y="953.7857">Domain -&gt; nothing</text><text fill="#000000" font-family="Verdana" font-size="14" lengthAdjust="spacing" textLength="31.8965" x="1848.7813" y="953.7857">pure</text><text fill="#000000" font-family="Verdana" font-size="14" lengthAdjust="spacing" textLength="309.8525" x="1507.5244" y="970.8004">No lateral adapter &lt;-&gt; adapter dependency</text><line style="stroke:#000000;stroke-width:1;" x1="1502.6025" x2="2031" y1="871.6519" y2="871.6519"/><line style="stroke:#000000;stroke-width:1;" x1="1502.6025" x2="2031" y1="888.6666" y2="888.6666"/><line style="stroke:#000000;stroke-width:1;" x1="1502.6025" x2="2031" y1="905.6812" y2="905.6812"/><line style="stroke:#000000;stroke-width:1;" x1="1502.6025" x2="2031" y1="922.6959" y2="922.6959"/><line style="stroke:#000000;stroke-width:1;" x1="1502.6025" x2="2031" y1="939.7105" y2="939.7105"/><line style="stroke:#000000;stroke-width:1;" x1="1502.6025" x2="2031" y1="956.7252" y2="956.7252"/><line style="stroke:#000000;stroke-width:1;" x1="1502.6025" x2="2031" y1="973.7398" y2="973.7398"/><line style="stroke:#000000;stroke-width:1;" x1="1502.6025" x2="1502.6025" y1="871.6519" y2="973.7398"/><line style="stroke:#000000;stroke-width:1;" x1="1843.8594" x2="1843.8594" y1="871.6519" y2="973.7398"/><line style="stroke:#000000;stroke-width:1;" x1="2031" x2="2031" y1="871.6519" y2="973.7398"/></g></g></svg>