<svg xmlns="http://www.w3.org/2000/svg" xmlns:xlink="http://www.w3.org/1999/xlink" contentStyleType="text/css" data-diagram-type="DESCRIPTION" height="682px" preserveAspectRatio="none" style="width:1854px;height:682px;background:#FFFFFF;" version="1.1" viewBox="0 0 1854 682" width="1854px" zoomAndPan="magnify"><?plantuml 1.2026.6?><defs/><g><g class="title" data-source-line="7"><text fill="#000000" font-family="Verdana" font-size="22" font-weight="700" lengthAdjust="spacing" textLength="265.0098" x="793.7065" y="37.1182">Modular build system</text><text fill="#000000" font-family="Verdana" font-size="22" font-weight="700" lengthAdjust="spacing" textLength="756.8086" x="547.8071" y="63.8555">Each builder fragment realizes one verb-first target contract;</text><text fill="#000000" font-family="Verdana" font-size="22" font-weight="700" lengthAdjust="spacing" textLength="705.7402" x="573.3413" y="90.5928">the root binds the generic verbs to the selected BUILDER</text></g><!--cluster Builders--><g class="cluster" data-qualified-name="Builders" data-source-line="32" id="ent0006"><path d="M13.5,229.6119 L214.0889,229.6119 A3.75,3.75 0 0 1 216.5889,232.1119 L223.5889,252.6266 L615.5,252.6266 A2.5,2.5 0 0 1 618,255.1266 L618,333.1419 A2.5,2.5 0 0 1 615.5,335.6419 L13.5,335.6419 A2.5,2.5 0 0 1 11,333.1419 L11,232.1119 A2.5,2.5 0 0 1 13.5,229.6119" fill="#FFF3E0" style="stroke:#000000;stroke-width:1;"/><line style="stroke:#000000;stroke-width:1;" x1="11" x2="223.5889" y1="252.6266" y2="252.6266"/><text fill="#000000" font-family="Verdana" font-size="14" font-weight="700" lengthAdjust="spacing" textLength="199.5889" x="15" y="245.6871">mk/  (builder fragments)</text></g><!--cluster Boards--><g class="cluster" data-qualified-name="Boards" data-source-line="41" id="ent0010"><path d="M1213.5,229.6119 L1311.8164,229.6119 A3.75,3.75 0 0 1 1314.3164,232.1119 L1321.3164,252.6266 L1470.5,252.6266 A2.5,2.5 0 0 1 1473,255.1266 L1473,333.1419 A2.5,2.5 0 0 1 1470.5,335.6419 L1213.5,335.6419 A2.5,2.5 0 0 1 1211,333.1419 L1211,232.1119 A2.5,2.5 0 0 1 1213.5,229.6119" fill="#E3F2FD" style="stroke:#000000;stroke-width:1;"/><line style="stroke:#000000;stroke-width:1;" x1="1211" x2="1321.3164" y1="252.6266" y2="252.6266"/><text fill="#000000" font-family="Verdana" font-size="14" font-weight="700" lengthAdjust="spacing" textLength="97.3164" x="1215" y="245.6871">mk/boards/</text></g><!--entity Root--><g class="entity" data-qualified-name="Root" data-source-line="18" id="ent0002"><rect fill="#FFE0B2" height="37.0146" rx="2.5" ry="2.5" style="stroke:#000000;stroke-width:1;" width="123.8994" x="908.05" y="113.2119"/><text fill="#000000" font-family="Verdana" font-size="14" lengthAdjust="spacing" textLength="103.8994" x="918.05" y="137.2871">Makefile (root)</text></g><!--entity Pio--><g class="entity" data-qualified-name="Builders.Pio" data-source-line="33" id="ent0007"><rect fill="#FFFFFF" height="54.0293" rx="2.5" ry="2.5" style="stroke:#000000;stroke-width:1;" width="197.3242" x="201.34" y="265.6119"/><text fill="#000000" font-family="Verdana" font-size="14" lengthAdjust="spacing" textLength="127.0938" x="211.34" y="289.6871">mk/platformio.mk</text><text fill="#000000" font-family="Verdana" font-size="14" lengthAdjust="spacing" textLength="177.3242" x="211.34" y="306.7018">(default; + offline cache)</text></g><!--entity Arduino--><g class="entity" data-qualified-name="Builders.Arduino" data-source-line="34" id="ent0008"><rect fill="#FFFFFF" height="54.0293" rx="2.5" ry="2.5" style="stroke:#000000;stroke-width:1;" width="148.085" x="453.96" y="265.6119"/><text fill="#000000" font-family="Verdana" font-size="14" lengthAdjust="spacing" textLength="108.418" x="463.96" y="289.6871">mk/arduino.mk</text><text fill="#000000" font-family="Verdana" font-size="14" lengthAdjust="spacing" textLength="128.085" x="463.96" y="306.7018">(GNU C++20 CLI)</text></g><!--entity Stm32--><g class="entity" data-qualified-name="Builders.Stm32" data-source-line="35" id="ent0009"><rect fill="#EEEEEE" height="54.0293" rx="2.5" ry="2.5" style="stroke:#000000;stroke-width:1;" width="119.4834" x="27.26" y="265.6119"/><text fill="#000000" font-family="Verdana" font-size="14" lengthAdjust="spacing" textLength="99.4834" x="37.26" y="289.6871">mk/stm32.mk</text><text fill="#000000" font-family="Verdana" font-size="14" lengthAdjust="spacing" textLength="55.1865" x="37.26" y="306.7018">(future)</text></g><!--entity Board--><g class="entity" data-qualified-name="Boards.Board" data-source-line="42" id="ent0011"><rect fill="#FFFFFF" height="54.0293" rx="2.5" ry="2.5" style="stroke:#000000;stroke-width:1;" width="230.7314" x="1226.63" y="265.6119"/><text fill="#000000" font-family="Verdana" font-size="14" lengthAdjust="spacing" textLength="91.4307" x="1236.63" y="289.6871">teensy41.mk</text><text fill="#000000" font-family="Verdana" font-size="14" lengthAdjust="spacing" textLength="210.7314" x="1236.63" y="306.7018">flash (air-gap, teensy_loader)</text></g><!--entity Contract--><g class="entity" data-qualified-name="Contract" data-source-line="13" id="ent0001"><ellipse cx="528" cy="550.0219" fill="#FFFDE7" rx="8" ry="8" style="stroke:#000000;stroke-width:1;"/><text fill="#000000" font-family="Verdana" font-size="14" lengthAdjust="spacing" textLength="122.8076" x="414.2124" y="581.0971">&#171;target contract&#187;</text><text fill="#000000" font-family="Verdana" font-size="14" lengthAdjust="spacing" textLength="217.0684" x="414.2124" y="598.1118">build-&lt;tool&gt;  &#183;  upload-&lt;tool&gt;</text><text fill="#000000" font-family="Verdana" font-size="14" lengthAdjust="spacing" textLength="227.5752" x="414.2124" y="615.1264">monitor-&lt;tool&gt;  &#183;  clean-&lt;tool&gt;</text><text fill="#000000" font-family="Verdana" font-size="14" lengthAdjust="spacing" textLength="203.2393" x="414.2124" y="632.1411">check-&lt;tool&gt;  (build prereq)</text><text fill="#000000" font-family="Verdana" font-size="14" lengthAdjust="spacing" textLength="212.3994" x="414.2124" y="649.1557">HEX_&lt;tool&gt;  (built .hex path)</text><text fill="#000000" font-family="Verdana" font-size="14" lengthAdjust="spacing" textLength="151.6895" x="414.2124" y="666.1704">(+ check-tools:: line)</text></g><g class="entity" data-qualified-name="GMN3" data-source-line="21" id="ent0004"><path d="M768.45,240.2219 L768.45,345.0178 A0,0 0 0 0 768.45,345.0178 L1171.5472,345.0178 A0,0 0 0 0 1171.5472,345.0178 L1171.5472,250.2219 L1161.5472,240.2219 L974,240.2219 L970,150.4919 L966,240.2219 L768.45,240.2219 A0,0 0 0 0 768.45,240.2219" fill="#FFFFFF" style="stroke:#000000;stroke-width:1;"/><path d="M1161.5472,240.2219 L1161.5472,250.2219 L1171.5472,250.2219 L1161.5472,240.2219" fill="#FFFFFF" style="stroke:#000000;stroke-width:1;"/><text fill="#000000" font-family="Verdana" font-size="13" lengthAdjust="spacing" textLength="280.6045" x="774.45" y="258.2917">Common logic only: host detection, colors,</text><text fill="#000000" font-family="Verdana" font-size="13" lengthAdjust="spacing" textLength="152.0327" x="774.45" y="274.0911">helper macros, and the</text><text fill="#000000" font-family="Verdana" font-size="13" font-weight="700" lengthAdjust="spacing" textLength="128.502" x="931.053" y="274.0911">BUILDER selector</text><text fill="#000000" font-family="Verdana" font-size="13" lengthAdjust="spacing" textLength="4.729" x="1059.555" y="274.0911">.</text><text fill="#000000" font-family="Verdana" font-size="13" lengthAdjust="spacing" textLength="227.7349" x="774.45" y="289.8904">Generic verbs are one-line aliases:</text><text fill="#000000" font-family="Verdana" font-size="13" lengthAdjust="spacing" textLength="177.7598" x="783.5906" y="305.6897">build  -&gt; build-$(BUILDER)</text><text fill="#000000" font-family="Verdana" font-size="13" lengthAdjust="spacing" textLength="247.3364" x="783.5906" y="321.489">upload -&gt; upload-$(BUILDER)   (etc.)</text><text fill="#000000" font-family="Verdana" font-size="13" lengthAdjust="spacing" textLength="382.0972" x="774.45" y="337.2883">include $(wildcard mk/boards/*.mk) $(wildcard mk/*.mk)</text></g><g class="entity" data-qualified-name="GMN18" data-source-line="58" id="ent0019"><path d="M1512.58,240.2219 L1512.58,345.0178 L1839.4228,345.0178 L1839.4228,250.2219 L1829.4228,240.2219 L1512.58,240.2219" fill="#FFFFFF" style="stroke:#000000;stroke-width:1;"/><path d="M1829.4228,240.2219 L1829.4228,250.2219 L1839.4228,250.2219 L1829.4228,240.2219" fill="#FFFFFF" style="stroke:#000000;stroke-width:1;"/><text fill="#000000" font-family="Verdana" font-size="13" lengthAdjust="spacing" textLength="264.9766" x="1518.58" y="258.2917">Extension point: drop in a fragment that</text><text fill="#000000" font-family="Verdana" font-size="13" lengthAdjust="spacing" textLength="257.3975" x="1518.58" y="274.0911">realizes the contract and it is picked up</text><text fill="#000000" font-family="Verdana" font-size="13" lengthAdjust="spacing" textLength="272.5747" x="1518.58" y="289.8904">automatically - no edits to the root or the</text><text fill="#000000" font-family="Verdana" font-size="13" lengthAdjust="spacing" textLength="305.8428" x="1518.58" y="305.6897">other fragments. Remove a fragment (e.g. the</text><text fill="#000000" font-family="Verdana" font-size="13" lengthAdjust="spacing" textLength="284.1021" x="1518.58" y="321.489">PlatformIO-free RTX subset) and its builder</text><text fill="#000000" font-family="Verdana" font-size="13" lengthAdjust="spacing" textLength="266.5254" x="1518.58" y="337.2883">simply disappears; BUILDER re-defaults.</text></g><!--link Pio to Contract--><g class="link" data-entity-1="ent0007" data-entity-2="ent0001" data-link-type="extension" data-source-line="46" id="lnk12"><path d="M398.89,293.0219 C417.09,293.0219 430.48,293.0219 430.48,293.0219 C430.48,293.0219 430.48,528.0219 430.48,531.9719" fill="none" id="Pio-to-Contract" style="stroke:#000000;stroke-width:1;stroke-dasharray:7,7;"/><polygon fill="none" points="430.48,549.9719,436.48,531.9719,424.48,531.9719,430.48,549.9719" style="stroke:#000000;stroke-width:1;stroke-linejoin:miter;stroke-miterlimit:10;"/><text fill="#000000" font-family="Verdana" font-size="13" lengthAdjust="spacing" textLength="49.5815" x="380.48" y="402.7717">realizes</text></g><!--link Arduino to Contract--><g class="link" data-entity-1="ent0008" data-entity-2="ent0001" data-link-type="extension" data-source-line="47" id="lnk13"><path d="M528,319.6819 C528,376.7319 528,488.9419 528,523.4819" fill="none" id="Arduino-to-Contract" style="stroke:#000000;stroke-width:1;stroke-dasharray:7,7;"/><polygon fill="none" points="528,541.4819,534,523.4819,522,523.4819,528,541.4819" style="stroke:#000000;stroke-width:1;stroke-linejoin:miter;stroke-miterlimit:10;"/><text fill="#000000" font-family="Verdana" font-size="13" lengthAdjust="spacing" textLength="49.5815" x="478" y="427.6517">realizes</text></g><!--link Stm32 to Contract--><g class="link" data-entity-1="ent0009" data-entity-2="ent0001" data-link-type="extension" data-source-line="48" id="lnk14"><path d="M87,319.6819 C87,385.7719 87,550.0219 87,550.0219 C87,550.0219 439.04,550.0219 501.19,550.0219" fill="none" id="Stm32-to-Contract" style="stroke:#000000;stroke-width:1;stroke-dasharray:7,7;"/><polygon fill="none" points="519.19,550.0219,501.19,544.0219,501.19,556.0219,519.19,550.0219" style="stroke:#000000;stroke-width:1;stroke-linejoin:miter;stroke-miterlimit:10;"/><text fill="#000000" font-family="Verdana" font-size="13" lengthAdjust="spacing" textLength="95.748" x="91.93" y="547.0917">realizes (later)</text></g><!--link Root to Contract--><g class="link" data-entity-1="ent0002" data-entity-2="ent0001" data-link-type="dependency" data-source-line="51" id="lnk15"><path d="M907.62,132.0219 C808.35,132.0219 625.52,132.0219 625.52,132.0219 C625.52,132.0219 625.52,538.5119 625.52,544.9419" fill="none" id="Root-to-Contract" style="stroke:#000000;stroke-width:1;stroke-dasharray:7,7;"/><polygon fill="#000000" points="625.52,549.9419,629.52,540.9419,625.52,544.9419,621.52,540.9419,625.52,549.9419" style="stroke:#000000;stroke-width:1;stroke-linejoin:miter;stroke-miterlimit:10;"/><text fill="#000000" font-family="Verdana" font-size="13" lengthAdjust="spacing" textLength="136.7412" x="488.52" y="181.0017">aliases generic verbs</text><text fill="#000000" font-family="Verdana" font-size="13" lengthAdjust="spacing" textLength="101.9688" x="505.9062" y="196.8011">to -$(BUILDER)</text></g><!--link Root to Board--><g class="link" data-entity-1="ent0002" data-entity-2="ent0011" data-link-type="dependency" data-source-line="54" id="lnk16"><path d="M1032.26,132.0219 C1138.16,132.0219 1342,132.0219 1342,132.0219 C1342,132.0219 1342,214.5619 1342,260.3819" fill="none" id="Root-to-Board" style="stroke:#000000;stroke-width:1;stroke-dasharray:7,7;"/><polygon fill="#000000" points="1342,265.3819,1346,256.3819,1342,260.3819,1338,256.3819,1342,265.3819" style="stroke:#000000;stroke-width:1;stroke-linejoin:miter;stroke-miterlimit:10;"/><text fill="#000000" font-family="Verdana" font-size="13" lengthAdjust="spacing" textLength="187.478" x="1065.81" y="129.0917">HEX ?= $(HEX_$(BUILDER))</text></g><!--link Board to Contract--><g class="link" data-entity-1="ent0011" data-entity-2="ent0001" data-link-type="dependency" data-source-line="55" id="lnk17"><path d="M1342,319.6819 C1342,385.7719 1342,550.0219 1342,550.0219 C1342,550.0219 630.08,550.0219 541.86,550.0219" fill="none" id="Board-to-Contract" style="stroke:#000000;stroke-width:1;stroke-dasharray:7,7;"/><polygon fill="#000000" points="536.86,550.0219,545.86,554.0219,541.86,550.0219,545.86,546.0219,536.86,550.0219" style="stroke:#000000;stroke-width:1;stroke-linejoin:miter;stroke-miterlimit:10;"/><text fill="#000000" font-family="Verdana" font-size="13" lengthAdjust="spacing" textLength="116.5684" x="937.6" y="531.0917">flash uses $(HEX)</text><text fill="#000000" font-family="Verdana" font-size="13" lengthAdjust="spacing" textLength="58.6396" x="966.5644" y="546.8911">(air-gap)</text></g><!--link Stm32 to GMN18--><g class="link" data-entity-1="ent0009" data-entity-2="ent0019" data-link-type="association" data-source-line="58" id="lnk20"><path d="M87,265.1719 C87,236.3119 87,195.0219 87,195.0219 C87,195.0219 1676,195.0219 1676,195.0219 C1676,195.0219 1676,216.8219 1676,239.8219" fill="none" id="Stm32-GMN18" style="stroke:#000000;stroke-width:1;stroke-dasharray:7,7;"/></g></g></svg>