<svg xmlns="http://www.w3.org/2000/svg" xmlns:xlink="http://www.w3.org/1999/xlink" contentStyleType="text/css" data-diagram-type="SEQUENCE" height="869px" preserveAspectRatio="none" style="width:960px;height:869px;background:#FFFFFF;" version="1.1" viewBox="0 0 960 869" width="960px" zoomAndPan="magnify"><?plantuml 1.2026.6?><defs/><g><g class="title" data-source-line="4"><text fill="#000000" font-family="Verdana" font-size="22" font-weight="700" lengthAdjust="spacing" textLength="164.9678" x="396.7183" y="37.1182">Runtime flow</text><text fill="#000000" font-family="Verdana" font-size="22" font-weight="700" lengthAdjust="spacing" textLength="928.4043" x="15" y="63.8555">Composition root wires the adapters; the controller steps the SOS program</text></g><rect fill="#FFFFFF" height="262.7632" style="stroke:#000000;stroke-width:1;" width="842.9424" x="58.231" y="453.8838"/><rect fill="#FFFFFF" height="141.5659" style="stroke:#000000;stroke-width:1;" width="450.3857" x="323.3491" y="568.0811"/><rect fill="#FFFFFF" height="51.168" style="stroke:none;stroke-width:1;" width="450.3857" x="323.3491" y="658.479"/><g class="participant-lifeline" data-entity-uid="part1" data-qualified-name="Core" data-source-line="6" id="part1-lifeline"><g><title>Arduino core</title><rect fill="#000000" fill-opacity="0.00000" height="627.7563" width="8" x="111.9072" y="157.4893"/><line style="stroke:#000000;stroke-width:1;stroke-dasharray:5,5;" x1="115.231" x2="115.231" y1="157.4893" y2="785.2456"/></g></g><g class="participant-lifeline" data-entity-uid="part2" data-qualified-name="Main" data-source-line="7" id="part2-lifeline"><g><title>composition root</title><rect fill="#000000" fill-opacity="0.00000" height="627.7563" width="8" x="244.4663" y="157.4893"/><line style="stroke:#000000;stroke-width:1;stroke-dasharray:5,5;" x1="247.5835" x2="247.5835" y1="157.4893" y2="785.2456"/></g></g><g class="participant-lifeline" data-entity-uid="part3" data-qualified-name="Ctl" data-source-line="8" id="part3-lifeline"><g><title>SosController</title><rect fill="#000000" fill-opacity="0.00000" height="627.7563" width="8" x="391.5889" y="157.4893"/><line style="stroke:#000000;stroke-width:1;stroke-dasharray:5,5;" x1="395.3491" x2="395.3491" y1="157.4893" y2="785.2456"/></g></g><g class="participant-lifeline" data-entity-uid="part4" data-qualified-name="Led" data-source-line="9" id="part4-lifeline"><g><title>TeensyRgbLedAdapter</title><rect fill="#000000" fill-opacity="0.00000" height="627.7563" width="8" x="666.2173" y="157.4893"/><line style="stroke:#000000;stroke-width:1;stroke-dasharray:5,5;" x1="669.6997" x2="669.6997" y1="157.4893" y2="785.2456"/></g></g><g class="participant-lifeline" data-entity-uid="part5" data-qualified-name="Clk" data-source-line="10" id="part5-lifeline"><g><title>TeensyClock</title><rect fill="#000000" fill-opacity="0.00000" height="627.7563" width="8" x="828.4541" y="157.4893"/><line style="stroke:#000000;stroke-width:1;stroke-dasharray:5,5;" x1="831.7349" x2="831.7349" y1="157.4893" y2="785.2456"/></g></g><g class="participant participant-head" data-entity-uid="part1" data-qualified-name="Core" data-source-line="6" id="part1-head"><text fill="#000000" font-family="Verdana" font-size="14" lengthAdjust="spacing" textLength="89.3525" x="68.231" y="154.5498">Arduino core</text><ellipse cx="115.9072" cy="88.4746" fill="#FFFFFF" rx="8" ry="8" style="stroke:#000000;stroke-width:1;"/><path d="M115.9072,96.4746 L115.9072,123.4746 M102.9072,104.4746 L128.9072,104.4746 M115.9072,123.4746 L102.9072,138.4746 M115.9072,123.4746 L128.9072,138.4746" fill="none" style="stroke:#000000;stroke-width:1;"/></g><g class="participant participant-tail" data-entity-uid="part1" data-qualified-name="Core" data-source-line="6" id="part1-tail"><text fill="#000000" font-family="Verdana" font-size="14" lengthAdjust="spacing" textLength="89.3525" x="68.231" y="798.3208">Arduino core</text><ellipse cx="115.9072" cy="810.2603" fill="#FFFFFF" rx="8" ry="8" style="stroke:#000000;stroke-width:1;"/><path d="M115.9072,818.2603 L115.9072,845.2603 M102.9072,826.2603 L128.9072,826.2603 M115.9072,845.2603 L102.9072,860.2603 M115.9072,845.2603 L128.9072,860.2603" fill="none" style="stroke:#000000;stroke-width:1;"/></g><g class="participant participant-head" data-entity-uid="part2" data-qualified-name="Main" data-source-line="7" id="part2-head"><rect fill="#FFFFFF" height="44.0293" rx="2.5" ry="2.5" style="stroke:#000000;stroke-width:1;" width="129.7656" x="183.5835" y="107.46"/><text fill="#000000" font-family="Verdana" font-size="14" lengthAdjust="spacing" textLength="117.8857" x="189.5234" y="126.5352">composition root</text><text fill="#000000" font-family="Verdana" font-size="14" lengthAdjust="spacing" textLength="119.7656" x="188.5835" y="143.5498">(main.cpp / .ino)</text></g><g class="participant participant-tail" data-entity-uid="part2" data-qualified-name="Main" data-source-line="7" id="part2-tail"><rect fill="#FFFFFF" height="44.0293" rx="2.5" ry="2.5" style="stroke:#000000;stroke-width:1;" width="129.7656" x="183.5835" y="789.2456"/><text fill="#000000" font-family="Verdana" font-size="14" lengthAdjust="spacing" textLength="117.8857" x="189.5234" y="808.3208">composition root</text><text fill="#000000" font-family="Verdana" font-size="14" lengthAdjust="spacing" textLength="119.7656" x="188.5835" y="825.3354">(main.cpp / .ino)</text></g><g class="participant participant-head" data-entity-uid="part3" data-qualified-name="Ctl" data-source-line="8" id="part3-head"><rect fill="#FFFFFF" height="27.0146" rx="2.5" ry="2.5" style="stroke:#000000;stroke-width:1;" width="104.4795" x="343.3491" y="124.4746"/><text fill="#000000" font-family="Verdana" font-size="14" lengthAdjust="spacing" textLength="94.4795" x="348.3491" y="143.5498">SosController</text></g><g class="participant participant-tail" data-entity-uid="part3" data-qualified-name="Ctl" data-source-line="8" id="part3-tail"><rect fill="#FFFFFF" height="27.0146" rx="2.5" ry="2.5" style="stroke:#000000;stroke-width:1;" width="104.4795" x="343.3491" y="789.2456"/><text fill="#000000" font-family="Verdana" font-size="14" lengthAdjust="spacing" textLength="94.4795" x="348.3491" y="808.3208">SosController</text></g><g class="participant participant-head" data-entity-uid="part4" data-qualified-name="Led" data-source-line="9" id="part4-head"><rect fill="#FFFFFF" height="44.0293" rx="2.5" ry="2.5" style="stroke:#000000;stroke-width:1;" width="167.0352" x="586.6997" y="107.46"/><text fill="#000000" font-family="Verdana" font-size="14" lengthAdjust="spacing" textLength="157.0352" x="591.6997" y="126.5352">TeensyRgbLedAdapter</text><text fill="#000000" font-family="Verdana" font-size="14" lengthAdjust="spacing" textLength="66.001" x="637.2168" y="143.5498">(LedPort)</text></g><g class="participant participant-tail" data-entity-uid="part4" data-qualified-name="Led" data-source-line="9" id="part4-tail"><rect fill="#FFFFFF" height="44.0293" rx="2.5" ry="2.5" style="stroke:#000000;stroke-width:1;" width="167.0352" x="586.6997" y="789.2456"/><text fill="#000000" font-family="Verdana" font-size="14" lengthAdjust="spacing" textLength="157.0352" x="591.6997" y="808.3208">TeensyRgbLedAdapter</text><text fill="#000000" font-family="Verdana" font-size="14" lengthAdjust="spacing" textLength="66.001" x="637.2168" y="825.3354">(LedPort)</text></g><g class="participant participant-head" data-entity-uid="part5" data-qualified-name="Clk" data-source-line="10" id="part5-head"><rect fill="#FFFFFF" height="44.0293" rx="2.5" ry="2.5" style="stroke:#000000;stroke-width:1;" width="97.4385" x="783.7349" y="107.46"/><text fill="#000000" font-family="Verdana" font-size="14" lengthAdjust="spacing" textLength="87.4385" x="788.7349" y="126.5352">TeensyClock</text><text fill="#000000" font-family="Verdana" font-size="14" lengthAdjust="spacing" textLength="78.8389" x="793.0347" y="143.5498">(ClockPort)</text></g><g class="participant participant-tail" data-entity-uid="part5" data-qualified-name="Clk" data-source-line="10" id="part5-tail"><rect fill="#FFFFFF" height="44.0293" rx="2.5" ry="2.5" style="stroke:#000000;stroke-width:1;" width="97.4385" x="783.7349" y="789.2456"/><text fill="#000000" font-family="Verdana" font-size="14" lengthAdjust="spacing" textLength="87.4385" x="788.7349" y="808.3208">TeensyClock</text><text fill="#000000" font-family="Verdana" font-size="14" lengthAdjust="spacing" textLength="78.8389" x="793.0347" y="825.3354">(ClockPort)</text></g><rect fill="#FFFFFF" height="3" style="stroke:#FFFFFF;stroke-width:1;" width="862.9424" x="48.231" y="188.3889"/><line style="stroke:#000000;stroke-width:0.5;" x1="48.231" x2="911.1733" y1="188.3889" y2="188.3889"/><line style="stroke:#000000;stroke-width:0.5;" x1="48.231" x2="911.1733" y1="191.3889" y2="191.3889"/><rect fill="#FFFFFF" height="23.7993" style="stroke:#000000;stroke-width:1;" width="141.3848" x="409.0098" y="177.4893"/><text fill="#000000" font-family="Verdana" font-size="13" font-weight="700" lengthAdjust="spacing" textLength="122.9414" x="415.0098" y="194.5591">Bring-up (setup)</text><g class="message" data-entity-1="part1" data-entity-2="part2" data-source-line="13" id="msg1"><polygon fill="#000000" points="236.4663,229.0879,246.4663,233.0879,236.4663,237.0879,240.4663,233.0879" style="stroke:#000000;stroke-width:1;stroke-linejoin:miter;stroke-miterlimit:10;"/><line style="stroke:#000000;stroke-width:1;" x1="115.9072" x2="242.4663" y1="233.0879" y2="233.0879"/><text fill="#000000" font-family="Verdana" font-size="13" lengthAdjust="spacing" textLength="47.7725" x="158.3005" y="228.3584">setup()</text></g><g class="message" data-entity-1="part2" data-entity-2="part4" data-source-line="14" id="msg2"><polygon fill="#000000" points="658.2173,258.8872,668.2173,262.8872,658.2173,266.8872,662.2173,262.8872" style="stroke:#000000;stroke-width:1;stroke-linejoin:miter;stroke-miterlimit:10;"/><line style="stroke:#000000;stroke-width:1;" x1="248.4663" x2="664.2173" y1="262.8872" y2="262.8872"/><text fill="#000000" font-family="Verdana" font-size="13" lengthAdjust="spacing" textLength="225.9131" x="346.3853" y="258.1577">begin()  // pins OUTPUT, LED dark</text></g><g class="message" data-entity-1="part2" data-entity-2="part3" data-source-line="15" id="msg3"><polygon fill="#000000" points="383.5889,288.6865,393.5889,292.6865,383.5889,296.6865,387.5889,292.6865" style="stroke:#000000;stroke-width:1;stroke-linejoin:miter;stroke-miterlimit:10;"/><line style="stroke:#000000;stroke-width:1;" x1="248.4663" x2="389.5889" y1="292.6865" y2="292.6865"/><text fill="#000000" font-family="Verdana" font-size="13" lengthAdjust="spacing" textLength="47.5439" x="298.2556" y="287.957">begin()</text></g><g class="message" data-entity-1="part3" data-entity-2="part3" data-source-line="16" id="msg4"><line style="stroke:#000000;stroke-width:1;" x1="395.5889" x2="437.5889" y1="322.4858" y2="322.4858"/><line style="stroke:#000000;stroke-width:1;" x1="437.5889" x2="437.5889" y1="322.4858" y2="335.4858"/><line style="stroke:#000000;stroke-width:1;" x1="396.5889" x2="437.5889" y1="335.4858" y2="335.4858"/><polygon fill="#000000" points="406.5889,331.4858,396.5889,335.4858,406.5889,339.4858,402.5889,335.4858" style="stroke:#000000;stroke-width:1;stroke-linejoin:miter;stroke-miterlimit:10;"/><text fill="#000000" font-family="Verdana" font-size="13" lengthAdjust="spacing" textLength="128.7051" x="402.5889" y="317.7563">build_sos(program)</text></g><g class="message" data-entity-1="part3" data-entity-2="part5" data-source-line="17" id="msg5"><polygon fill="#000000" points="820.4541,361.2852,830.4541,365.2852,820.4541,369.2852,824.4541,365.2852" style="stroke:#000000;stroke-width:1;stroke-linejoin:miter;stroke-miterlimit:10;"/><line style="stroke:#000000;stroke-width:1;" x1="395.5889" x2="826.4541" y1="365.2852" y2="365.2852"/><text fill="#000000" font-family="Verdana" font-size="13" lengthAdjust="spacing" textLength="45.4937" x="591.2747" y="360.5557">millis()</text></g><g class="message" data-entity-1="part3" data-entity-2="part4" data-source-line="18" id="msg6"><polygon fill="#000000" points="658.2173,391.0845,668.2173,395.0845,658.2173,399.0845,662.2173,395.0845" style="stroke:#000000;stroke-width:1;stroke-linejoin:miter;stroke-miterlimit:10;"/><line style="stroke:#000000;stroke-width:1;" x1="395.5889" x2="664.2173" y1="395.0845" y2="395.0845"/><text fill="#000000" font-family="Verdana" font-size="13" lengthAdjust="spacing" textLength="223.8691" x="420.9685" y="390.355">set(Red)   // first segment (S dot)</text></g><rect fill="#FFFFFF" height="3" style="stroke:#FFFFFF;stroke-width:1;" width="862.9424" x="48.231" y="423.9841"/><line style="stroke:#000000;stroke-width:0.5;" x1="48.231" x2="911.1733" y1="423.9841" y2="423.9841"/><line style="stroke:#000000;stroke-width:0.5;" x1="48.231" x2="911.1733" y1="426.9841" y2="426.9841"/><rect fill="#FFFFFF" height="23.7993" style="stroke:#000000;stroke-width:1;" width="264.1929" x="347.6057" y="413.0845"/><text fill="#000000" font-family="Verdana" font-size="13" font-weight="700" lengthAdjust="spacing" textLength="245.7495" x="353.6057" y="430.1543">Steady state (loop, non-blocking)</text><path d="M58.231,453.8838 L134.6138,453.8838 L134.6138,461.6831 L124.6138,471.6831 L58.231,471.6831 L58.231,453.8838" fill="#FFFFFF" style="stroke:#000000;stroke-width:1;"/><rect fill="none" height="262.7632" style="stroke:#000000;stroke-width:1;" width="842.9424" x="58.231" y="453.8838"/><text fill="#000000" font-family="Verdana" font-size="13" font-weight="700" lengthAdjust="spacing" textLength="31.3828" x="73.231" y="467.9536">loop</text><text fill="#000000" font-family="Verdana" font-size="11" font-weight="700" lengthAdjust="spacing" textLength="145.4224" x="149.6138" y="466.9429">[every loop() iteration]</text><g class="message" data-entity-1="part1" data-entity-2="part2" data-source-line="22" id="msg7"><polygon fill="#000000" points="236.4663,489.4824,246.4663,493.4824,236.4663,497.4824,240.4663,493.4824" style="stroke:#000000;stroke-width:1;stroke-linejoin:miter;stroke-miterlimit:10;"/><line style="stroke:#000000;stroke-width:1;" x1="115.9072" x2="242.4663" y1="493.4824" y2="493.4824"/><text fill="#000000" font-family="Verdana" font-size="13" lengthAdjust="spacing" textLength="39.2539" x="162.5598" y="488.7529">loop()</text></g><g class="message" data-entity-1="part2" data-entity-2="part3" data-source-line="23" id="msg8"><polygon fill="#000000" points="383.5889,519.2817,393.5889,523.2817,383.5889,527.2817,387.5889,523.2817" style="stroke:#000000;stroke-width:1;stroke-linejoin:miter;stroke-miterlimit:10;"/><line style="stroke:#000000;stroke-width:1;" x1="248.4663" x2="389.5889" y1="523.2817" y2="523.2817"/><text fill="#000000" font-family="Verdana" font-size="13" lengthAdjust="spacing" textLength="34.9312" x="304.562" y="518.5522">poll()</text></g><g class="message" data-entity-1="part3" data-entity-2="part5" data-source-line="24" id="msg9"><polygon fill="#000000" points="820.4541,549.0811,830.4541,553.0811,820.4541,557.0811,824.4541,553.0811" style="stroke:#000000;stroke-width:1;stroke-linejoin:miter;stroke-miterlimit:10;"/><line style="stroke:#000000;stroke-width:1;" x1="395.5889" x2="826.4541" y1="553.0811" y2="553.0811"/><text fill="#000000" font-family="Verdana" font-size="13" lengthAdjust="spacing" textLength="45.4937" x="591.2747" y="548.3516">millis()</text></g><path d="M323.3491,568.0811 L387.3984,568.0811 L387.3984,575.8804 L377.3984,585.8804 L323.3491,585.8804 L323.3491,568.0811" fill="#FFFFFF" style="stroke:#000000;stroke-width:1;"/><rect fill="none" height="141.5659" style="stroke:#000000;stroke-width:1;" width="450.3857" x="323.3491" y="568.0811"/><text fill="#000000" font-family="Verdana" font-size="13" font-weight="700" lengthAdjust="spacing" textLength="19.0493" x="338.3491" y="582.1509">alt</text><text fill="#000000" font-family="Verdana" font-size="11" font-weight="700" lengthAdjust="spacing" textLength="238.063" x="402.3984" y="581.1401">[current segment's hold time elapsed]</text><g class="message" data-entity-1="part3" data-entity-2="part3" data-source-line="26" id="msg10"><line style="stroke:#000000;stroke-width:1;" x1="395.5889" x2="437.5889" y1="607.6797" y2="607.6797"/><line style="stroke:#000000;stroke-width:1;" x1="437.5889" x2="437.5889" y1="607.6797" y2="620.6797"/><line style="stroke:#000000;stroke-width:1;" x1="396.5889" x2="437.5889" y1="620.6797" y2="620.6797"/><polygon fill="#000000" points="406.5889,616.6797,396.5889,620.6797,406.5889,624.6797,402.5889,620.6797" style="stroke:#000000;stroke-width:1;stroke-linejoin:miter;stroke-miterlimit:10;"/><text fill="#000000" font-family="Verdana" font-size="13" lengthAdjust="spacing" textLength="260.6284" x="402.5889" y="602.9502">advance to next segment (wrap at end)</text></g><g class="message" data-entity-1="part3" data-entity-2="part4" data-source-line="27" id="msg11"><polygon fill="#000000" points="658.2173,646.479,668.2173,650.479,658.2173,654.479,662.2173,650.479" style="stroke:#000000;stroke-width:1;stroke-linejoin:miter;stroke-miterlimit:10;"/><line style="stroke:#000000;stroke-width:1;" x1="395.5889" x2="664.2173" y1="650.479" y2="650.479"/><text fill="#000000" font-family="Verdana" font-size="13" lengthAdjust="spacing" textLength="96.4717" x="484.6672" y="645.7495">set(next color)</text></g><line style="stroke:#000000;stroke-width:1;stroke-dasharray:2,2;" x1="323.3491" x2="773.7349" y1="659.479" y2="659.479"/><text fill="#000000" font-family="Verdana" font-size="11" font-weight="700" lengthAdjust="spacing" textLength="84.6592" x="328.3491" y="670.5381">[still holding]</text><path d="M400.231,678.8477 L400.231,703.8477 L518.231,703.8477 L518.231,688.8477 L508.231,678.8477 L400.231,678.8477" fill="#FFFFFF" style="stroke:#000000;stroke-width:1;"/><path d="M508.231,678.8477 L508.231,688.8477 L518.231,688.8477 L508.231,678.8477" fill="#FFFFFF" style="stroke:#000000;stroke-width:1;"/><text fill="#000000" font-family="Verdana" font-size="13" lengthAdjust="spacing" textLength="97.6079" x="406.231" y="696.9175">no LED change</text><path d="M337.231,728.647 L337.231,769.647 L889.231,769.647 L889.231,738.647 L879.231,728.647 L337.231,728.647" fill="#FFFFFF" style="stroke:#000000;stroke-width:1;"/><path d="M879.231,728.647 L879.231,738.647 L889.231,738.647 L879.231,728.647" fill="#FFFFFF" style="stroke:#000000;stroke-width:1;"/><text fill="#000000" font-family="Verdana" font-size="13" lengthAdjust="spacing" textLength="307.8296" x="444.2532" y="746.7168">Elapsed time uses unsigned 32-bit subtraction,</text><text fill="#000000" font-family="Verdana" font-size="13" lengthAdjust="spacing" textLength="329.7798" x="444.2532" y="762.5161">so timing stays correct across the millis() rollover.</text></g></svg>